<svg width="24" height="24" viewBox="0 0 24 24" fill="none" xmlns="http://www.w3.org/2000/svg">
<path d="M14.6012 11.8693C14.6012 11.0669 14.5514 10.3018 14.4785 9.55396H10.0934C10.0205 10.3018 9.9707 11.0669 9.9707 11.8693C9.9707 12.5638 10.0066 13.3429 10.0864 14.1846H14.4854C14.5651 13.3429 14.6011 12.5638 14.6011 11.8693H14.6012Z" fill="#3191E9"/>
<path d="M14.1379 16.4995H10.4336C10.814 18.4441 11.4363 20.3332 12.2857 22.1236C13.1351 20.3335 13.7574 18.4443 14.1379 16.4995Z" fill="#3191E9"/>
<path d="M22.8872 7.23897C22.1281 5.47172 20.9502 3.91592 19.4554 2.70562C17.9605 1.49552 16.1934 0.66744 14.3066 0.293213C15.3332 2.5039 16.0679 4.83877 16.4923 7.23897H22.8872Z" fill="#3191E9"/>
<path d="M16.9165 11.8693C16.9165 12.5638 16.8783 13.3499 16.8008 14.1846H23.6309C23.9428 12.6569 23.9428 11.0817 23.6309 9.55396H16.8092C16.8751 10.303 16.9168 11.0716 16.9168 11.8693H16.9165Z" fill="#3191E9"/>
<path d="M12.2858 1.62085C11.442 3.41057 10.8218 5.29739 10.4395 7.23898H14.1379C13.7536 5.29729 13.1317 3.41047 12.2858 1.62085Z" fill="#3191E9"/>
<path d="M16.4941 16.4995C16.0782 18.9017 15.3435 21.2375 14.3096 23.4453C16.1958 23.0705 17.9623 22.2424 19.4569 21.0323C20.9515 19.8222 22.129 18.2664 22.8879 16.4995H16.4941Z" fill="#3191E9"/>
<path d="M10.2652 0.292969C8.37855 0.667196 6.61144 1.49528 5.11637 2.70538C3.62159 3.91568 2.44369 5.47148 1.68457 7.23873H8.07913C8.50355 4.83852 9.23823 2.50365 10.2648 0.292969H10.2652Z" fill="#3191E9"/>
<path d="M1.68457 16.4995C2.44349 18.2664 3.621 19.8222 5.11558 21.0323C6.60996 22.2424 8.37646 23.0704 10.2629 23.4453C9.22896 21.2375 8.49429 18.9017 8.07839 16.4995H1.68457Z" fill="#3191E9"/>
<path d="M7.77107 14.1848C7.69703 13.3502 7.65537 12.5641 7.65537 11.8695C7.65537 11.0718 7.69704 10.3032 7.76312 9.5542H0.9409C0.629075 11.0819 0.629075 12.6571 0.9409 14.1848H7.77107Z" fill="#3191E9"/>
</svg>
