<svg width="117" height="41" viewBox="0 0 117 41" fill="none" xmlns="http://www.w3.org/2000/svg">
<path d="M61.7624 13.6755V25.7709C61.7624 26.1616 61.8718 26.4585 62.0906 26.6617C62.3094 26.8648 62.6219 26.9664 63.0282 26.9664H68.6774L68.8415 29.6621C67.732 29.7871 66.5678 29.8574 65.3489 29.8731C64.1456 29.9043 62.9423 29.9199 61.739 29.9199C60.5669 29.9199 59.6762 29.6074 59.0667 28.9823C58.4729 28.3416 58.176 27.529 58.176 26.5445V13.6755H61.7624ZM76.9846 13.3474C78.266 13.3474 79.3521 13.488 80.2429 13.7693C81.1336 14.0349 81.8446 14.4881 82.376 15.1288C82.9229 15.7539 83.3214 16.6134 83.5714 17.7073C83.8215 18.7856 83.9465 20.1373 83.9465 21.7626C83.9465 23.3878 83.8215 24.7473 83.5714 25.8412C83.3214 26.9195 82.9229 27.779 82.376 28.4197C81.8446 29.0448 81.1336 29.498 80.2429 29.7793C79.3521 30.0449 78.266 30.1778 76.9846 30.1778C75.7032 30.1778 74.6171 30.0449 73.7263 29.7793C72.8356 29.498 72.1167 29.0448 71.5698 28.4197C71.0228 27.779 70.6244 26.9195 70.3743 25.8412C70.1243 24.7473 69.9993 23.3878 69.9993 21.7626C69.9993 20.1373 70.1243 18.7856 70.3743 17.7073C70.6244 16.6134 71.0228 15.7539 71.5698 15.1288C72.1167 14.4881 72.8356 14.0349 73.7263 13.7693C74.6171 13.488 75.7032 13.3474 76.9846 13.3474ZM76.9846 16.1837C76.1564 16.1837 75.5078 16.3478 75.039 16.6759C74.5858 17.0041 74.2577 17.5745 74.0545 18.3871C73.867 19.1841 73.7732 20.3092 73.7732 21.7626C73.7732 23.2003 73.867 24.3254 74.0545 25.138C74.2577 25.9506 74.5858 26.521 75.039 26.8492C75.5078 27.1774 76.1564 27.3415 76.9846 27.3415C77.7972 27.3415 78.4301 27.1774 78.8833 26.8492C79.3521 26.521 79.6803 25.9506 79.8678 25.138C80.071 24.3254 80.1725 23.2003 80.1725 21.7626C80.1725 20.3092 80.071 19.1841 79.8678 18.3871C79.6803 17.5745 79.3521 17.0041 78.8833 16.6759C78.4301 16.3478 77.7972 16.1837 76.9846 16.1837ZM93.3574 13.3474C94.0606 13.3474 94.7013 13.3708 95.2795 13.4177C95.8577 13.4646 96.4047 13.5271 96.9204 13.6052C97.4517 13.6833 97.9674 13.8005 98.4675 13.9568L98.1862 16.5587C97.6392 16.5275 97.1079 16.504 96.5922 16.4884C96.0765 16.4728 95.5608 16.465 95.0451 16.465C94.5294 16.4493 93.9903 16.4415 93.4277 16.4415C92.7557 16.4415 92.1932 16.5118 91.74 16.6525C91.3024 16.7931 90.9508 17.0588 90.6851 17.4495C90.4195 17.8245 90.2241 18.3715 90.0991 19.0903C89.9897 19.7935 89.935 20.6999 89.935 21.8094C89.935 23.1534 90.021 24.2082 90.1929 24.9739C90.3648 25.7397 90.6539 26.2866 91.0602 26.6148C91.4665 26.9273 92.0134 27.0836 92.701 27.0836C93.1699 27.0836 93.5996 27.0367 93.9903 26.943C94.381 26.8492 94.7404 26.7242 95.0685 26.5679C95.3967 26.396 95.7014 26.2319 95.9827 26.0757L96.3578 27.7634C96.1234 28.0916 95.7718 28.4432 95.303 28.8182C94.8498 29.1933 94.295 29.5136 93.6387 29.7793C92.9823 30.0449 92.2322 30.1778 91.3884 30.1778C90.1694 30.1778 89.1693 29.8887 88.3879 29.3105C87.6222 28.7323 87.0596 27.8259 86.7002 26.5914C86.3408 25.3412 86.1611 23.7238 86.1611 21.7391C86.1611 19.6295 86.3877 17.9652 86.8409 16.7463C87.3097 15.5273 88.0676 14.66 89.1146 14.1443C90.1773 13.613 91.5915 13.3474 93.3574 13.3474ZM99.03 20.5202V29.8496H96.3812L95.889 27.3883L95.5608 26.732V20.5202H99.03ZM108.323 13.3474C109.604 13.3474 110.69 13.488 111.581 13.7693C112.472 14.0349 113.183 14.4881 113.714 15.1288C114.261 15.7539 114.66 16.6134 114.91 17.7073C115.16 18.7856 115.285 20.1373 115.285 21.7626C115.285 23.3878 115.16 24.7473 114.91 25.8412C114.66 26.9195 114.261 27.779 113.714 28.4197C113.183 29.0448 112.472 29.498 111.581 29.7793C110.69 30.0449 109.604 30.1778 108.323 30.1778C107.041 30.1778 105.955 30.0449 105.065 29.7793C104.174 29.498 103.455 29.0448 102.908 28.4197C102.361 27.779 101.963 26.9195 101.713 25.8412C101.462 24.7473 101.337 23.3878 101.337 21.7626C101.337 20.1373 101.462 18.7856 101.713 17.7073C101.963 16.6134 102.361 15.7539 102.908 15.1288C103.455 14.4881 104.174 14.0349 105.065 13.7693C105.955 13.488 107.041 13.3474 108.323 13.3474ZM108.323 16.1837C107.495 16.1837 106.846 16.3478 106.377 16.6759C105.924 17.0041 105.596 17.5745 105.393 18.3871C105.205 19.1841 105.111 20.3092 105.111 21.7626C105.111 23.2003 105.205 24.3254 105.393 25.138C105.596 25.9506 105.924 26.521 106.377 26.8492C106.846 27.1774 107.495 27.3415 108.323 27.3415C109.135 27.3415 109.768 27.1774 110.221 26.8492C110.69 26.521 111.018 25.9506 111.206 25.138C111.409 24.3254 111.511 23.2003 111.511 21.7626C111.511 20.3092 111.409 19.1841 111.206 18.3871C111.018 17.5745 110.69 17.0041 110.221 16.6759C109.768 16.3478 109.135 16.1837 108.323 16.1837Z" fill="#151515"/>
<rect y="0.720703" width="41.5626" height="39.5591" fill="#3191E9"/>
</svg>
