<svg width="19" height="25" viewBox="0 0 19 25" fill="none" xmlns="http://www.w3.org/2000/svg">
<path d="M15.6408 3.66196C13.9848 2.00591 11.6942 0.978516 9.16212 0.978516C6.63002 0.978516 4.33949 2.00591 2.68344 3.66196C1.02448 5.32092 0 7.61145 0 10.1406C0 10.1406 -5.55126e-07 17.4925 9.16503 24.8414C18.3301 17.4895 18.3301 10.1406 18.3301 10.1406C18.3272 7.61145 17.2998 5.32092 15.6408 3.66196ZM9.16212 15.0768C6.06248 15.0768 3.54785 12.5621 3.54785 9.4625C3.54785 6.35995 6.06248 3.84823 9.16212 3.84823C12.2647 3.84823 14.7764 6.36286 14.7764 9.4625C14.7764 12.5651 12.2647 15.0768 9.16212 15.0768Z" fill="#3191E9"/>
<path d="M9.1619 12.7454C10.9751 12.7454 12.4449 11.2756 12.4449 9.46244C12.4449 7.64929 10.9751 6.17944 9.1619 6.17944C7.34875 6.17944 5.87891 7.64929 5.87891 9.46244C5.87891 11.2756 7.34875 12.7454 9.1619 12.7454Z" fill="#3191E9"/>
</svg>
