<svg width="17" height="14" viewBox="0 0 17 14" fill="none" xmlns="http://www.w3.org/2000/svg">
<path d="M14.0588 7.96143H12.8672C12.9886 8.29397 13.055 8.65285 13.055 9.02689V13.5306C13.055 13.6865 13.0279 13.8362 12.9785 13.9754H14.9485C15.6844 13.9754 16.2831 13.3767 16.2831 12.6408V10.1857C16.2831 8.95924 15.2853 7.96143 14.0588 7.96143Z" fill="#3191E9"/>
<path d="M4.1031 9.02641C4.1031 8.65233 4.16946 8.29348 4.29092 7.96094H3.09929C1.87282 7.96094 0.875 8.95875 0.875 10.1852V12.6404C0.875 13.3762 1.47367 13.975 2.20957 13.975H4.17963C4.13024 13.8357 4.1031 13.686 4.1031 13.5301V9.02641Z" fill="#3191E9"/>
<path d="M9.9407 6.80225H7.21648C5.99 6.80225 4.99219 7.80006 4.99219 9.02654V13.5302C4.99219 13.7759 5.19135 13.9751 5.43705 13.9751H11.7201C11.9658 13.9751 12.165 13.7759 12.165 13.5302V9.02654C12.165 7.80006 11.1672 6.80225 9.9407 6.80225Z" fill="#3191E9"/>
<path d="M8.57929 0.904785C7.10429 0.904785 5.9043 2.10478 5.9043 3.5798C5.9043 4.5803 6.4565 5.45409 7.27201 5.91286C7.65881 6.13044 8.10475 6.25479 8.57929 6.25479C9.05382 6.25479 9.49976 6.13044 9.88656 5.91286C10.7021 5.45409 11.2543 4.58027 11.2543 3.5798C11.2543 2.10481 10.0543 0.904785 8.57929 0.904785Z" fill="#3191E9"/>
<path d="M3.87944 3.39868C2.77633 3.39868 1.87891 4.2961 1.87891 5.39922C1.87891 6.50234 2.77633 7.39976 3.87944 7.39976C4.15926 7.39976 4.42572 7.3418 4.66777 7.23761C5.08627 7.05743 5.43133 6.73849 5.64485 6.33898C5.79472 6.05859 5.87998 5.73872 5.87998 5.39922C5.87998 4.29613 4.98256 3.39868 3.87944 3.39868Z" fill="#3191E9"/>
<path d="M13.2759 3.39868C12.1728 3.39868 11.2754 4.2961 11.2754 5.39922C11.2754 5.73875 11.3606 6.05862 11.5105 6.33898C11.724 6.73852 12.0691 7.05746 12.4876 7.23761C12.7297 7.3418 12.9961 7.39976 13.2759 7.39976C14.379 7.39976 15.2765 6.50234 15.2765 5.39922C15.2765 4.2961 14.379 3.39868 13.2759 3.39868Z" fill="#3191E9"/>
</svg>
