<svg width="16" height="14" viewBox="0 0 16 14" fill="none" xmlns="http://www.w3.org/2000/svg">
<path d="M13.3128 1.08242C13.1466 0.583848 12.648 0.251465 12.1495 0.251465H3.00894C2.42727 0.251465 2.01179 0.583848 1.8456 1.08242L0.100586 6.06817V12.7158C0.100586 13.2144 0.432969 13.5468 0.931543 13.5468H1.7625C2.26108 13.5468 2.59346 13.2144 2.59346 12.7158V11.8849H12.5649V12.7158C12.5649 13.2144 12.8973 13.5468 13.3959 13.5468H14.2269C14.7254 13.5468 15.0578 13.2144 15.0578 12.7158V6.06817L13.3128 1.08242ZM3.00894 9.39199C2.34417 9.39199 1.7625 8.81032 1.7625 8.14556C1.7625 7.48079 2.34417 6.89912 3.00894 6.89912C3.6737 6.89912 4.25537 7.48079 4.25537 8.14556C4.25537 8.81032 3.6737 9.39199 3.00894 9.39199ZM12.1495 9.39199C11.4847 9.39199 10.903 8.81032 10.903 8.14556C10.903 7.48079 11.4847 6.89912 12.1495 6.89912C12.8142 6.89912 13.3959 7.48079 13.3959 8.14556C13.3959 8.81032 12.8142 9.39199 12.1495 9.39199ZM1.7625 5.23721L3.00894 1.4979H12.1495L13.3959 5.23721H1.7625Z" fill="#3191E9"/>
</svg>
