<svg width="19" height="24" viewBox="0 0 19 24" fill="none" xmlns="http://www.w3.org/2000/svg">
<path d="M17.7063 9.00037H16.2721V7.08816C16.2721 3.3978 13.2699 0.395508 9.57947 0.395508C5.88906 0.395508 2.88682 3.3978 2.88682 7.08816V9.00037H1.45267C1.18843 9.00037 0.974609 9.21419 0.974609 9.47843V21.4296C0.974609 22.4842 1.83218 23.3418 2.88682 23.3418H16.2722C17.3268 23.3418 18.1843 22.4842 18.1843 21.4296V9.47843C18.1843 9.21419 17.9705 9.00037 17.7063 9.00037ZM11.0108 18.9866C11.0258 19.1215 10.9824 19.2569 10.8918 19.3582C10.8012 19.4595 10.6714 19.5174 10.5356 19.5174H8.62339C8.48755 19.5174 8.35776 19.4595 8.26718 19.3582C8.17661 19.257 8.13318 19.1216 8.14815 18.9866L8.44972 16.2747C7.96001 15.9185 7.66731 15.3551 7.66731 14.7369C7.66731 13.6824 8.52488 12.8247 9.57951 12.8247C10.6341 12.8247 11.4917 13.6823 11.4917 14.7369C11.4917 15.3551 11.199 15.9185 10.7093 16.2747L11.0108 18.9866ZM13.4038 9.00037H5.7551V7.08816C5.7551 4.97943 7.47074 3.26379 9.57947 3.26379C11.6882 3.26379 13.4038 4.97943 13.4038 7.08816V9.00037Z" fill="#3191E9"/>
</svg>
